solid Wedge_8deg_SoldBody
   facet normal -6.975647e-002 9.975641e-001 0.000000e+000
      outer loop
         vertex -5.000000e-002 5.000000e-003 5.000000e-002
         vertex 5.000000e-002 1.199268e-002 5.000000e-002
         vertex -5.000000e-002 5.000000e-003 -5.000000e-002
      endloop
   endfacet
   facet normal -6.975647e-002 9.975641e-001 0.000000e+000
      outer loop
         vertex -5.000000e-002 5.000000e-003 -5.000000e-002
         vertex 5.000000e-002 1.199268e-002 5.000000e-002
         vertex 5.000000e-002 1.199268e-002 -5.000000e-002
      endloop
   endfacet
   facet normal -1.000000e+000 0.000000e+000 0.000000e+000
      outer loop
         vertex -5.000000e-002 -5.000000e-003 5.000000e-002
         vertex -5.000000e-002 5.000000e-003 5.000000e-002
         vertex -5.000000e-002 -5.000000e-003 -5.000000e-002
      endloop
   endfacet
   facet normal -1.000000e+000 0.000000e+000 0.000000e+000
      outer loop
         vertex -5.000000e-002 -5.000000e-003 -5.000000e-002
         vertex -5.000000e-002 5.000000e-003 5.000000e-002
         vertex -5.000000e-002 5.000000e-003 -5.000000e-002
      endloop
   endfacet
   facet normal -6.975647e-002 -9.975641e-001 0.000000e+000
      outer loop
         vertex 5.000000e-002 -1.199268e-002 5.000000e-002
         vertex -5.000000e-002 -5.000000e-003 5.000000e-002
         vertex 5.000000e-002 -1.199268e-002 -5.000000e-002
      endloop
   endfacet
   facet normal -6.975647e-002 -9.975641e-001 0.000000e+000
      outer loop
         vertex 5.000000e-002 -1.199268e-002 -5.000000e-002
         vertex -5.000000e-002 -5.000000e-003 5.000000e-002
         vertex -5.000000e-002 -5.000000e-003 -5.000000e-002
      endloop
   endfacet
   facet normal 1.000000e+000 0.000000e+000 0.000000e+000
      outer loop
         vertex 5.000000e-002 1.199268e-002 5.000000e-002
         vertex 5.000000e-002 -1.199268e-002 5.000000e-002
         vertex 5.000000e-002 1.199268e-002 -5.000000e-002
      endloop
   endfacet
   facet normal 1.000000e+000 0.000000e+000 0.000000e+000
      outer loop
         vertex 5.000000e-002 1.199268e-002 -5.000000e-002
         vertex 5.000000e-002 -1.199268e-002 5.000000e-002
         vertex 5.000000e-002 -1.199268e-002 -5.000000e-002
      endloop
   endfacet
   facet normal 0.000000e+000 0.000000e+000 1.000000e+000
      outer loop
         vertex -5.000000e-002 -5.000000e-003 5.000000e-002
         vertex 5.000000e-002 -1.199268e-002 5.000000e-002
         vertex -5.000000e-002 5.000000e-003 5.000000e-002
      endloop
   endfacet
   facet normal 0.000000e+000 0.000000e+000 1.000000e+000
      outer loop
         vertex -5.000000e-002 5.000000e-003 5.000000e-002
         vertex 5.000000e-002 -1.199268e-002 5.000000e-002
         vertex 5.000000e-002 1.199268e-002 5.000000e-002
      endloop
   endfacet
   facet normal 0.000000e+000 0.000000e+000 -1.000000e+000
      outer loop
         vertex 5.000000e-002 -1.199268e-002 -5.000000e-002
         vertex -5.000000e-002 -5.000000e-003 -5.000000e-002
         vertex 5.000000e-002 1.199268e-002 -5.000000e-002
      endloop
   endfacet
   facet normal 0.000000e+000 0.000000e+000 -1.000000e+000
      outer loop
         vertex 5.000000e-002 1.199268e-002 -5.000000e-002
         vertex -5.000000e-002 -5.000000e-003 -5.000000e-002
         vertex -5.000000e-002 5.000000e-003 -5.000000e-002
      endloop
   endfacet
endsolid