solid ascii
   facet normal -6.975647e-002 -9.975641e-001 0.000000e+000
      outer loop
         vertex -3.575167e-002 -1.301043e-018 5.000000e-002
         vertex -3.575167e-002 -3.035766e-018 -5.000000e-002
         vertex 2.000000e-001 -1.648536e-002 5.000000e-002
      endloop
   endfacet
   facet normal -6.975647e-002 -9.975641e-001 0.000000e+000
      outer loop
         vertex 2.000000e-001 -1.648536e-002 5.000000e-002
         vertex -3.575167e-002 -3.035766e-018 -5.000000e-002
         vertex 2.000000e-001 -1.648536e-002 -5.000000e-002
      endloop
   endfacet
   facet normal 0.000000e+000 0.000000e+000 -1.000000e+000
      outer loop
         vertex -3.575167e-002 -1.517883e-018 -5.000000e-002
         vertex 2.000000e-001 1.648536e-002 -5.000000e-002
         vertex 2.000000e-001 -1.648536e-002 -5.000000e-002
      endloop
   endfacet
   facet normal 1.000000e+000 0.000000e+000 0.000000e+000
      outer loop
         vertex 2.000000e-001 -1.648536e-002 -5.000000e-002
         vertex 2.000000e-001 1.648536e-002 -5.000000e-002
         vertex 2.000000e-001 -1.648536e-002 5.000000e-002
      endloop
   endfacet
   facet normal 1.000000e+000 0.000000e+000 0.000000e+000
      outer loop
         vertex 2.000000e-001 -1.648536e-002 5.000000e-002
         vertex 2.000000e-001 1.648536e-002 -5.000000e-002
         vertex 2.000000e-001 1.648536e-002 5.000000e-002
      endloop
   endfacet
   facet normal 0.000000e+000 0.000000e+000 1.000000e+000
      outer loop
         vertex 2.000000e-001 -1.648536e-002 5.000000e-002
         vertex 2.000000e-001 1.648536e-002 5.000000e-002
         vertex -3.575167e-002 -8.673617e-019 5.000000e-002
      endloop
   endfacet
   facet normal -6.975647e-002 9.975641e-001 -2.056333e-018
      outer loop
         vertex 2.000000e-001 1.648536e-002 5.000000e-002
         vertex 2.000000e-001 1.648536e-002 -5.000000e-002
         vertex -3.575167e-002 1.403609e-018 5.000000e-002
      endloop
   endfacet
   facet normal -6.975647e-002 9.975641e-001 -2.056333e-018
      outer loop
         vertex -3.575167e-002 1.403609e-018 5.000000e-002
         vertex 2.000000e-001 1.648536e-002 -5.000000e-002
         vertex -3.575167e-002 2.933200e-018 -5.000000e-002
      endloop
   endfacet
endsolid